<svg width="512" height="512" viewBox="0 0 512 512" fill="none" xmlns="http://www.w3.org/2000/svg">
  <defs>
    <linearGradient id="bg" x1="256" y1="28" x2="256" y2="484" gradientUnits="userSpaceOnUse">
      <stop offset="0" stop-color="#142358"/>
      <stop offset="1" stop-color="#2C74CC"/>
    </linearGradient>
    <linearGradient id="shield" x1="256" y1="92" x2="256" y2="398" gradientUnits="userSpaceOnUse">
      <stop offset="0" stop-color="#F7FCFF" stop-opacity="0.96"/>
      <stop offset="1" stop-color="#D6EEFF" stop-opacity="0.96"/>
    </linearGradient>
    <filter id="softGlow" x="-30%" y="-30%" width="160%" height="160%">
      <feGaussianBlur stdDeviation="8" result="blur"/>
      <feMerge>
        <feMergeNode in="blur"/>
        <feMergeNode in="SourceGraphic"/>
      </feMerge>
    </filter>
  </defs>

  <rect x="28" y="28" width="456" height="456" rx="112" fill="url(#bg)"/>
  <rect x="24" y="24" width="464" height="464" rx="114" stroke="#7AD7FF" stroke-opacity="0.25" stroke-width="2"/>

  <path d="M256 92L375 145L353 304L256 398L159 304L137 145L256 92Z" fill="url(#shield)"/>
  <path d="M256 126L344 165L329 282L256 353L183 282L168 165L256 126Z" fill="#DDF3FF" fill-opacity="0.95"/>

  <g filter="url(#softGlow)">
    <circle cx="238" cy="232" r="70" fill="#2553A8" fill-opacity="0.94"/>
    <circle cx="238" cy="232" r="48" fill="#7ED6FF"/>
    <ellipse cx="227" cy="205" rx="21" ry="18" fill="white" fill-opacity="0.52"/>
  </g>

  <rect x="278" y="270" width="69" height="69" rx="18" fill="#2553A8" fill-opacity="0.94"/>

  <circle cx="310" cy="180" r="23" fill="#FF5548" fill-opacity="0.28"/>
  <circle cx="310" cy="180" r="16" fill="#FF5548" fill-opacity="0.46"/>
  <circle cx="310" cy="180" r="9" fill="#FF5548" fill-opacity="0.86"/>
</svg>
